<svg width="460" height="300" viewBox="0 0 460 300" xmlns="http://www.w3.org/2000/svg">
  <g fill="none" fill-rule="evenodd">
    <path d="M230 294c79.53 0 144-64.47 144-144S309.53 6 230 6 86 70.47 86 150s64.47 144 144 144" fill="#626366"/>
    <path d="M349.66 145.35C347.2 81.3 294.66 30.1 230 30.1c-64.65 0-117.2 51.2-119.66 115.25h34.83c2.43-44.8 39.43-80.4 84.83-80.4s82.4 35.6 84.83 80.4h34.83zm-239.32 9.3c2.46 64.05 55 115.25 119.66 115.25 64.65 0 117.2-51.2 119.66-115.25h-34.83c-2.43 44.8-39.43 80.4-84.83 80.4s-82.4-35.6-84.83-80.4h-34.83z" fill="#FEFEFE"/>
    <path d="M287.82 136.44c1.14 5.02 1.7 10.26 1.5 15.66-.16 4.95-.94 9.75-2.23 14.33-3.8-9.68-9.2-16.32-18.5-20.47l-1.6-.7.9 1.52c6.3 10.9 10.2 27.26 5.3 44.2-4.6 4.9-10 9.03-15.9 12.16 5.7-13.2 6.2-28.65 1.3-41.83-4.6-12.4-13.8-22-25.8-27.2l.1-.3c8.6-4.8 17.8-7.4 26.7-7.4 10.5 0 20 3.5 28 10.1zm-37.52 60.3c-1.67 4.16-3.97 8.03-6.85 11.6-4.96 1.16-10.17 1.7-15.52 1.5-4.9-.16-9.67-.95-14.2-2.26 9.58-3.7 16.16-9.2 20.27-18.57l.7-1.6-1.5.9c-8.27 4.9-18.3 7.6-28.2 7.6-5.4 0-10.6-.8-15.68-2.2-4.82-4.6-8.9-10-11.98-16 7.05 3.2 14.8 4.8 22.55 4.8 20.6 0 38.2-11.2 45.9-29.4l.3.1c7.9 14.5 9.4 30.4 4.1 43.7zm-47.67-99.88c-5.7 13.2-6.25 28.66-1.35 41.82 4.63 12.42 13.77 22.1 25.76 27.3l-.08.3c-8.63 4.82-17.87 7.38-26.75 7.38-10.5 0-20-3.52-28-10.1-1.1-5-1.7-10.27-1.5-15.65.2-4.9 1-9.7 2.3-14.3 3.7 9.7 9.2 16.3 18.4 20.5l1.6.7-.9-1.5c-6.3-10.9-10.2-27.2-5.3-44.2 4.6-4.9 9.9-9 15.9-12.1zm80.05 25.53c-7.06-3.2-14.8-4.8-22.56-4.8-20.66 0-38.22 11.2-45.95 29.4l-.3-.1c-7.95-14.5-9.47-30.4-4.17-43.7 1.67-4.2 3.98-8.1 6.85-11.6 4.98-1.2 10.2-1.7 15.53-1.6 4.92.1 9.67.9 14.2 2.2-9.58 3.7-16.18 9.2-20.28 18.5l-.7 1.6 1.5-.9c8.3-4.9 18.3-7.6 28.2-7.6 5.4 0 10.62.8 15.7 2.3 4.82 4.6 8.88 10 11.98 16z" fill="#FEFEFE"/>
    <path d="M363.36 150c0-73.65-59.7-133.36-133.36-133.36-73.65 0-133.36 59.7-133.36 133.36 0 73.65 59.7 133.36 133.36 133.36 73.65 0 133.36-59.7 133.36-133.36m-5.46 0c0 70.64-57.26 127.9-127.9 127.9-70.64 0-127.9-57.26-127.9-127.9 0-70.64 57.26-127.9 127.9-127.9 70.64 0 127.9 57.26 127.9 127.9" fill="#FEFEFE"/>
    <path d="M136.77 176.07l-1.58-2.7 2.1-1.23 2.5 4.03.5 1.97-16.4 4.3-.8-2.83m14.6 16.1c3-1.3 4.9-3.9 3.9-6.3-1-2.4-4.1-2.9-7.2-1.6h-.1c-3.1 1.3-4.9 3.9-3.9 6.3 1 2.4 4.1 2.9 7.1 1.6M133 185h.06c4.44-1.9 9.17-.7 10.9 3.4 1.7 4.1-.7 8.2-5.1 10.1-4.4 1.9-9.14.7-10.9-3.3-1.7-4 .7-8.2 5.1-10.1m8.46 17.2l3.75 6.1-2.45 1.5-3.7-6m8.96 12.1l3.74-11.6 2.2 2.8-2.84 8.3 8.78-.9 2.1 2.66-12.05 1.1-5.2 4.2-1.9-2.3m20.8-1.5l9.4 8.2-1.7 2-7.1-6.3-2.9 3.3 6.3 5.6-1.7 2-6.4-5.56-2.53 3 7.23 6.33-1.74 2-9.5-8.3m26.8 11.6l.9-7.26-5.9 4.32 5 2.9zm1.5-10.97l2.3 1.4-2.3 18.32-2.7-1.6.6-4.35-6.9-4.04-3.5 2.6-2.6-1.6 14.9-10.8zm14.9 16.37c2 .72 3.6.13 4.2-1.47v-.05c.6-1.7-.3-3-2.4-3.8l-4.1-1.4-2 5.3 4.06 1.5zm-4.1-10.3l7 2.54c2 .7 3.3 1.86 4 3.22.5 1.1.5 2.5.1 3.8h-.1c-.9 2.6-3.06 3.6-5.48 3.4l2.13 7.5-3.3-1.2-1.9-6.9-3.5-1.3-2 5.5-2.8-1 5.7-15.8zm21.6 7.13l3.2.12 3.5 12.6 4.6-12.34 2.5.1 3.6 12.64 4.4-12.3 3.1.1-6.45 16.7-2.6-.1-3.7-12.2-4.6 11.9-2.5-.1m32.5-8.67l-4.04-6.1-1.6 7.2 5.66-1zm-6-9.3l2.7-.5 10.3 15.3-3.04.6-2.4-3.7-7.8 1.5-1 4.3-2.95.6 4.2-17.9zm22 2.5c1.97-.7 2.8-2.2 2.2-3.8-.7-1.7-2.25-2.1-4.3-1.3l-4.02 1.6 2.08 5.3 4.07-1.5zm-9.8-5.1l6.97-2.7c1.95-.7 3.7-.8 5.1-.2 1.16.6 2.08 1.5 2.6 2.9v.1c1.04 2.6.1 4.7-1.83 6.2l6.5 4.3-3.25 1.3-5.95-3.9-3.43 1.4 2.1 5.5-2.7 1.1-6.1-15.6zm26.3-3.3c1.8-1.1 2.37-2.7 1.47-4.2-.96-1.5-2.6-1.7-4.4-.5l-3.7 2.3 2.98 4.8 3.7-2.3zm-10.55-3.2l6.4-3.9c1.8-1.1 3.5-1.4 5-1.1 1.25.3 2.3 1.1 3.1 2.4v.1c1.5 2.4.95 4.7-.7 6.5l7.2 3-2.94 1.9-6.6-2.8-3.17 2 3.07 5-2.5 1.6-8.8-14.3zm29-8.9l-6.7-2.9 2.5 6.9 4.25-3.9zm-10.05-4.6l2-1.8 16.9 7.4-2.25 2.2-4-1.8-5.8 5.4 1.5 4.2-2.2 2.1-6.1-17.4zm8.96-8.7l1.6-2.2 14.7-.5-9.4-6.8 1.7-2.3 13.6 9.9-1.4 2-15.1.5 9.7 7-1.73 2.4m1-27.5l-2.3 4.8-2.5-1.2 5.9-12.3 2.45 1.2-2.3 4.8 12.66 6.1-1.3 2.7m.7-19.9l-11.5 3.6.95-3.3 8.4-2.5-5.9-6.6.9-3.3 8 9.1 6.4 1.8-.8 2.8M127 124.1l.1 3.1-2.47.1-.35-4.7.46-1.9 16.42 3.9-.7 2.9m-2.02-20.15l-.04-.02c-3.08-1.25-6.23-.67-7.2 1.74-.97 2.4.87 4.9 3.97 6.2h.04c3.1 1.23 6.3.7 7.2-1.7 1-2.4-.9-4.97-3.9-6.2m-4.3 10.7c-4.4-1.8-7-5.93-5.3-10.03 1.6-4.1 6.3-5.37 10.7-3.6h.1c4.5 1.8 7 6 5.4 10.1s-6.2 5.3-10.7 3.52m7.4-17.8l3.6-6.1 2.5 1.46-3.6 6.1m7.2-12.4l-12.1-.95 2.18-2.8 8.76.9-3-8.3 2.1-2.7 3.9 11.46 5.3 4.1-1.83 2.36M153 71.8l9.2-8.3 1.75 1.9-7.04 6.4 3 3.2 6.2-5.7 1.8 2-6.3 5.6 3 3.36 7.1-6.5 1.8 2-9.4 8.4m17.2-21.5l-6-4.2 1.1 7.23 5-3zm-8.9-6.6l2.4-1.4 15.1 10.6L187 67l-3.57-2.6-6.8 4.14.6 4.36-2.6 1.6-2.5-18.3zm23.6-2.1c2-.73 2.9-2.23 2.3-3.83v-.03c-.6-1.7-2.1-2.14-4.2-1.4l-4 1.5 2 5.3 4.1-1.5zm-9.7-5.3l7-2.6c2-.72 3.8-.7 5.2-.1 1.1.56 2 1.56 2.5 2.93 1 2.6 0 4.7-2 6.1l6.5 4.4-3.3 1.2-5.9-4-3.5 1.2 2 5.5-2.8 1-5.9-15.7zm26.5-8.3l3.2-.13 4.6 12.3 3.6-12.7 2.5-.1L231.1 52l3.46-12.6 3.1-.12-5.1 17.16-2.57.1-4.7-11.84-3.6 12.24-2.6.14M250.5 52l-1.66-7.14-4.05 6.1 5.7 1.03zm-2.3-10.86l2.7.5 4.23 17.98-3.07-.56-.96-4.3-7.8-1.42-2.4 3.7-3-.54 10.3-15.34zm19.05 14.1c1.97.8 3.62.26 4.24-1.33.6-1.6-.2-3-2.2-3.8l-4-1.5-2.1 5.3 4 1.6zm-3.73-10.4l7 2.75c1.9.7 3.23 1.9 3.9 3.3.44 1.1.5 2.5-.07 3.8-1 2.6-3.16 3.5-5.57 3.3l1.9 7.6-3.26-1.3-1.7-7-3.44-1.4-2.14 5.4-2.75-1.1 6.1-15.7zm20.27 18.9c1.8 1.14 3.5.9 4.4-.53.9-1.5.3-3-1.5-4.2l-3.6-2.3-3 4.8 3.6 2.3zM282 52.8l6.35 4c1.78 1.1 2.85 2.5 3.2 4 .28 1.23.04 2.56-.74 3.8v.04c-1.4 2.33-3.7 2.86-6 2.2l.5 7.8-3-1.88-.4-7.17-3.1-2-3.1 4.9-2.5-1.6 8.9-14.3zm17.6 25.9l2.5-6.85-6.7 2.9 4.2 3.96zm3.98-10.32l2 1.88-6.26 17.35-2.27-2.1 1.55-4.1-5.77-5.4-4.04 1.8-2.2-2.1 17-7.2zm10.92 11.45l1.7 2.17-4.32 14.05 9.5-6.7 1.67 2.38-13.73 9.7-1.43-2.03 4.4-14.46-9.8 6.9-1.7-2.38m24.7 13.1l-2.3-4.82 2.5-1.15 5.7 12.3-2.5 1.1-2.3-4.9-12.8 5.9-1.3-2.7m12.2 13.8l8.2-9 .9 3.4-6.1 6.4 8.4 2.7.9 3.3-11.4-3.9-6.5 1.7-.7-2.9" fill="#626366"/>
  </g>
</svg>
