<svg width="150" height="150" viewBox="0 0 150 150" xmlns="http://www.w3.org/2000/svg">
  <g fill="none">
    <path d="M75 149c40.87 0 74-33.13 74-74S115.87 1 75 1 1 34.13 1 75s33.13 74 74 74" fill="#626366"/>
    <path d="M136.5 72.6c-1.28-32.9-28.28-59.2-61.5-59.2S14.77 39.72 13.5 72.63h17.9c1.26-23 20.27-41.3 43.6-41.3 23.33 0 42.34 18.3 43.6 41.3h17.9zm-123 4.8c1.27 32.9 28.27 59.22 61.5 59.22 33.22 0 60.23-26.32 61.5-59.23h-17.9c-1.26 23-20.27 41.3-43.6 41.3-23.33 0-42.34-18.3-43.6-41.3H13.5z" fill="#FEFEFE"/>
    <path d="M104.7 68.03c.6 2.58.9 5.27.78 8.05-.08 2.54-.48 5-1.14 7.36-1.95-4.97-4.73-8.38-9.5-10.52l-.83-.36.5.8c3.3 5.6 5.3 14 2.7 22.7-2.3 2.52-5.1 4.64-8.1 6.25 3-6.7 3.2-14.7.7-21.5-2.3-6.3-7.1-11.3-13.2-13.9l.1-.1c4.3-2.4 9-3.8 13.6-3.8 5.4 0 10.3 1.8 14.4 5.2h.1zm-19.27 31c-.86 2.13-2.04 4.12-3.52 5.95-2.5.6-5.2.87-7.9.77-2.5-.08-4.9-.5-7.3-1.16 4.9-1.9 8.3-4.8 10.4-9.6l.4-.9-.8.4c-4.2 2.5-9.4 3.9-14.5 3.9-2.7 0-5.4-.4-8-1.2-2.5-2.38-4.6-5.1-6.2-8.2 3.6 1.62 7.6 2.45 11.6 2.45 10.6 0 19.6-5.75 23.6-15.1l.2.05c4 7.47 4.8 15.64 2.1 22.47l.1-.1zM60.93 47.7c-2.92 6.77-3.2 14.7-.7 21.47 2.4 6.4 7.1 11.36 13.25 14.03l-.04.17c-4.44 2.47-9.2 3.8-13.75 3.8-5.4 0-10.3-1.82-14.4-5.2-.6-2.57-.9-5.28-.8-8.04.1-2.52.5-5 1.2-7.35 1.9 4.98 4.7 8.37 9.4 10.53l.8.4-.5-.7c-3.2-5.6-5.2-14-2.7-22.7 2.3-2.5 5.1-4.6 8.1-6.2h-.1zm41.14 13.1c-3.63-1.64-7.6-2.47-11.6-2.47-10.6 0-19.63 5.76-23.6 15.1l-.16-.04c-4-7.5-4.8-15.7-2.1-22.5.9-2.2 2.1-4.2 3.5-6 2.6-.6 5.3-.9 8-.8 2.6 0 5 .4 7.3 1.1-4.9 1.9-8.3 4.7-10.4 9.5l-.3.8.8-.5c4.3-2.5 9.4-3.9 14.5-3.9 2.8 0 5.5.4 8.1 1.2 2.5 2.3 4.6 5.1 6.2 8.2v.1z" fill="#FEFEFE"/>
    <path d="M143.53 75c0-37.85-30.68-68.53-68.53-68.53S6.47 37.15 6.47 75 37.15 143.53 75 143.53s68.53-30.68 68.53-68.53m-2.8 0c0 36.3-29.43 65.73-65.73 65.73-36.3 0-65.73-29.43-65.73-65.73C9.27 38.7 38.7 9.27 75 9.27c36.3 0 65.73 29.43 65.73 65.73" fill="#FEFEFE"/>
    <path d="M27.1 88.4l-.82-1.4 1.08-.62 1.28 2.07.26 1-8.43 2.22-.4-1.45 7.02-1.82zm.46 10.1c1.54-.68 2.52-2 2-3.25-.5-1.23-2.1-1.5-3.7-.82h-.04c-1.6.67-2.52 2-2 3.24.5 1.23 2.1 1.5 3.64.82h.1zm-2.4-5.5h.02c2.3-1 4.72-.37 5.6 1.73.88 2.1-.35 4.22-2.62 5.2-2.26.97-4.7.35-5.6-1.7-.87-2.06.36-4.22 2.62-5.2l-.03-.04zm4.37 8.88l1.93 3.13-1.26.8-1.9-3.1 1.23-.8zm3.37 7.04l1.92-5.96 1.13 1.43-1.45 4.2 4.5-.5 1.1 1.3-6.2.5-2.68 2.1-.97-1.2 2.65-2.2zm8.03 1.4l4.83 4.23-.87 1.03-3.7-3.24-1.5 1.7 3.3 2.86-.9 1.04-3.3-2.86-1.3 1.55 3.7 3.25-.9 1.03-4.9-4.2 5.4-6.3zm8.3 12.28l.47-3.73-3.03 2.22 2.57 1.4zm.78-5.64l1.2.72-1.2 9.42-1.3-.82.3-2.24-3.5-2.08-1.8 1.34-1.3-.82 7.7-5.55.1.03zm7.7 8.42c1 .37 1.9.06 2.2-.76v-.02c.3-.88-.1-1.55-1.2-1.96l-2.1-.72-1 2.73 2.1.77.2-.04zm-2.1-5.3l3.6 1.3c1 .37 1.7.96 2.1 1.66.3.57.3 1.3.1 1.96-.4 1.33-1.5 1.85-2.8 1.74l1.1 3.86-1.7-.62-1-3.54-1.8-.67-1.1 2.83-1.4-.52 3-8.12.08.12zm11.1 3.67l1.7.06 1.8 6.5 2.4-6.3 1.3.1 1.9 6.5 2.3-6.3 1.6.1-3.3 8.6h-1.3l-1.9-6.3-2.3 6.1h-1.3L67 124zM86 128.1l-2.1-3.16-.8 3.7 2.9-.52v-.05zm-3.1-4.8l1.4-.27 5.27 7.87-1.56.3-1.2-1.9-4 .78-.5 2.2-1.5.3 2.2-9.2v-.1zm11.3 1.3c1-.38 1.44-1.16 1.13-1.98-.35-.87-1.15-1.08-2.2-.67l-2.07.83 1.07 2.7 2.1-.76-.02-.15zm-5.04-2.65l3.58-1.38c1-.37 1.9-.42 2.62-.12.6.3 1.07.78 1.34 1.5v.05c.53 1.34.04 2.4-.95 3.2l3.34 2.2-1.7.68-3.1-2-1.8.7 1 2.83-1.4.6-3.1-8v-.2zm13.52-1.7c.92-.56 1.22-1.38.75-2.15-.48-.76-1.32-.86-2.25-.25l-1.9 1.2 1.53 2.45 1.9-1.17v-.05zm-5.42-1.64l3.28-2c.93-.5 1.8-.7 2.57-.5.7.2 1.2.6 1.6 1.3v.1c.8 1.3.5 2.4-.3 3.4l3.7 1.58-1.5 1-3.4-1.43-1.6 1 1.6 2.56-1.2.8-4.5-7.36v-.2zm14.9-4.5l-3.44-1.5 1.3 3.6 2.17-2h-.1zm-5.16-2.4l1-.9 8.7 3.8-1.15 1.2-2.06-.9-3 2.8.7 2.2-1.2 1.1-3.2-8.93-.1-.13zm4.6-4.5l.8-1.1 7.57-.2-4.83-3.5.88-1.1 7 5.1-.72 1-7.75.3 5 3.6-.9 1.3-7.02-5.13zm7.53-9l-1.18 2.5-1.3-.6 3.04-6.3 1.2.6-1.2 2.5 6.5 3.2-.7 1.4-6.5-3.1zm6.84-7.1l-5.9 1.9.48-1.7 4.3-1.3-3.02-3.4.46-1.7 4.1 4.7 3.3.9-.4 1.5-3.4-.8zM22.07 61.7l.05 1.58-1.27.05-.18-2.4.24-1 8.5 2.02-.3 1.5-6.9-1.76zm5.9-8.62h-.04c-1.6-.65-3.2-.35-3.7.9-.5 1.22.44 2.5 2.04 3.17h.02c1.5.63 3.2.36 3.7-.87s-.5-2.56-2.1-3.2h-.1zm-2.2 5.5c-2.26-.9-3.6-3.04-2.7-5.14.8-2.1 3.2-2.76 5.5-1.85h.03c2.3.9 3.6 3 2.78 5.1-.83 2.1-3.2 2.7-5.5 1.8h-.1zm3.9-9.14l1.86-3.14 1.28.75L31 50.2l-1.28-.78zm5-5.62l-6.2-.5 1.1-1.43 4.5.4-1.54-4.3 1.08-1.4 2 5.9 2.8 2.1-.9 1.2-2.7-2.1zm.76-9l4.73-4.27.9.97-3.62 3.3 1.54 1.64 3.2-2.93.9 1.03-3.22 2.87 1.54 1.73 3.65-3.34.92 1.03-4.83 4.32-5.7-6.36zm14.55-4.7l-3.08-2.16.56 3.7 2.57-1.53h-.05zm-4.57-3.4l1.3-.7 7.8 5.43-1.5.9L51.1 31l-3.5 2.14.3 2.24-1.3.82-1.3-9.4.14-.07zm12.2-1.07c1.1-.38 1.5-1.15 1.2-1.97v-.02c-.3-.87-1-1.1-2.1-.72l-2 .77 1.1 2.8 2.1-.7h-.1zm-5-2.73l3.6-1.33c1-.4 2-.4 2.7-.1.6.3 1.1.8 1.3 1.5.6 1.3 0 2.4-1 3.1l3.4 2.2-1.7.6-3.1-2-1.8.6 1 2.8-1.4.5-3-8.1h.1zm13.6-4.26l1.7-.07 2.4 6.3 1.9-6.6 1.3-.1 2.3 6.3 1.7-6.5H79l-2.64 8.8h-1.33l-2.4-6.1-1.88 6.3-1.34.1-3.2-8.6zm19.4 5.98l-.8-3.67-2.1 3.13 3 .53zm-1.2-5.58l1.4.25 2.2 9.3-1.5-.3-.5-2.2-4-.7-1.2 1.9-1.5-.3 5.3-7.9zm9.8 7.24c1 .4 1.9.14 2.2-.68.3-.82-.1-1.54-1.1-1.95l-2-.77-1.1 2.72 2.1.82.1-.14zm-1.9-5.34l3.6 1.4c1 .37 1.7 1 2 1.7.2.57.3 1.3 0 1.96-.5 1.34-1.6 1.8-2.8 1.7l1 3.9-1.6-.67-.9-3.6-1.72-.7-1.1 2.76-1.45-.5 3.13-8 .04.2zm10.4 9.7c1 .6 1.8.47 2.3-.26.5-.77.2-1.54-.7-2.16l-1.8-1.18-1.5 2.47 1.88 1.18h.06zm-.9-5.6l3.2 2.04c.9.58 1.5 1.3 1.7 2.07.2.63 0 1.32-.4 1.95v.03c-.7 1.2-1.9 1.47-3.1 1.13l.3 4-1.5-.95-.2-3.68-1.6-1.03-1.6 2.5-1.2-.8 4.6-7.36v.1zm9.1 13.3l1.3-3.52-3.4 1.5 2.2 2.02zm2.1-5.3l1.1.96-3.2 8.92-1.15-1.08.8-2.1-3-2.78-2.1.92-1.1-1.08 8.74-3.7v-.06zm5.6 5.88l.9 1.12-2.2 7.22 4.9-3.45.9 1.23-7.03 4.98-.76-1.04 2.25-7.43-5.04 3.54-.85-1.2 7-4.9zm5.7 11.68l-1.2-2.48 1.3-.6 2.94 6.33-1.3.57-1.16-2.52-6.6 3.03-.65-1.38 6.7-2.95zm-.4 10.04l4.2-4.63.48 1.75-3.16 3.3 4.3 1.38.48 1.7-5.82-2-3.36.86-.4-1.5 3.24-.86z" fill="#626366"/>
  </g>
</svg>
