<svg xmlns="http://www.w3.org/2000/svg" viewBox="0 0 15 15" enable-background="new 0 0 15 15"><path fill="#1D6BB4" d="M7.5 10.4c.3 0 .6 0 .9-.1.3-.1.5-.2.8-.3.2-.1.5-.3.7-.5.2-.2.5-.4.7-.5.7-.6 1.4-1.1 2.1-1.7.7-.5 1.4-1.1 2.1-1.6.1 0 .1-.1.2-.1s.1-.1.2-.1V13c0 .3-.1.5-.3.7-.2.2-.4.3-.7.3H.9c-.3 0-.5-.1-.7-.3-.1-.2-.2-.4-.2-.7V5.4c.1.1.1.1.2.1s.1.1.2.1c.6.6 1.3 1.1 2 1.7.7.5 1.4 1.1 2.1 1.7.2.2.4.4.7.5.2.2.5.3.7.5.2.1.5.3.8.3.2.1.5.1.8.1zm0-1.9c-.2 0-.3-.1-.5-.1-.3-.2-.4-.3-.6-.4-.2-.2-.4-.3-.6-.5-.2-.1-.3-.2-.5-.3-.6-.6-1.3-1.1-1.9-1.6-.6-.5-1.3-1-2-1.5-.1-.1-.2-.3-.4-.4-.2-.2-.3-.4-.5-.6-.1-.2-.2-.4-.3-.7C.1 2.2 0 2 0 1.9c0-.2.1-.4.3-.6.2-.2.4-.3.6-.3H14c.2 0 .4.1.6.3.3.1.4.3.4.6 0 .2-.1.4-.2.6-.1.2-.2.4-.4.6-.1.2-.3.4-.5.6l-.4.4c-.7.5-1.3 1-2 1.5-.6.5-1.3 1-1.9 1.5-.1.2-.2.3-.4.4-.2.2-.4.3-.6.5-.2.1-.3.2-.5.3-.2.1-.4.2-.6.2z"/></svg>