<svg xmlns="http://www.w3.org/2000/svg" viewBox="0 0 20 20"><path fill="gray" d="M10 0c1.4 0 2.7.3 3.9.8 1.2.5 2.3 1.2 3.2 2.1.9.9 1.6 2 2.1 3.2.5 1.2.8 2.5.8 3.9s-.3 2.7-.8 3.9c-.5 1.2-1.2 2.3-2.1 3.2-.9.9-2 1.6-3.2 2.1-1.2.5-2.5.8-3.9.8s-2.7-.3-3.9-.8c-1.2-.5-2.3-1.2-3.2-2.1-.9-.9-1.6-2-2.1-3.2C.3 12.7 0 11.4 0 10s.3-2.7.8-3.9C1.3 4.9 2 3.8 2.9 2.9c.9-.9 2-1.6 3.2-2.1C7.3.3 8.6 0 10 0zm0 17c1 0 1.9-.2 2.7-.6.8-.4 1.6-.9 2.2-1.5.6-.6 1.1-1.4 1.5-2.2.4-.8.6-1.7.6-2.7 0-1-.2-1.9-.6-2.7-.4-.8-.9-1.6-1.5-2.2-.6-.6-1.4-1.1-2.2-1.5C11.9 3.2 11 3 10 3c-1 0-1.9.2-2.7.6-.9.3-1.6.8-2.2 1.5-.7.6-1.2 1.3-1.5 2.2C3.2 8.1 3 9 3 10c0 1 .2 1.9.5 2.7.4.8.9 1.6 1.5 2.2.6.6 1.4 1.1 2.2 1.5.9.4 1.8.6 2.8.6zm4.7-7.3c.1.1.2.2.2.3 0 .2-.1.3-.2.3l-6.8 3.9c-.1 0-.1.1-.2.1s-.1 0-.2-.1-.2-.2-.2-.3V6.1c0-.2.1-.3.2-.4.2-.1.3-.1.4 0l6.8 4z"/></svg>