<svg xmlns="http://www.w3.org/2000/svg" viewBox="0 0 20 20"><path fill="gray" d="M19.8 6.3c-.1-.3-.3-.6-.5-.7L15 1.3c-.2-.2-.4-.3-.7-.5-.3-.1-.6-.2-.9-.2H6c-.3 0-.5.1-.7.3-.2.2-.3.4-.3.7v9H.7c-.2 0-.3.1-.5.3-.1.1-.2.4-.2.6v2.6c0 .3.1.5.2.7.1.2.3.3.5.3H5v3.3c0 .3.1.5.3.7.2.2.4.3.7.3h13.1c.3 0 .5-.1.7-.3.2-.2.3-.4.3-.7V7.2l-.3-.9zm-1.7 11.2H6.9v-2.4h8.5c.2 0 .4-.1.5-.3.1-.2.2-.4.2-.7v-2.6c0-.2-.1-.5-.2-.6-.1-.2-.3-.3-.5-.3H6.9V2.5h4.7v5.6c0 .3.1.5.3.7.2.2.4.2.6.2h5.6v8.5zm-8.2-3.7v-1.9h5.4v1.9H9.9zm3.6-6.6V2.5h.1c.1 0 .1 0 .1.1L18 6.9s0 .1.1.1v.2h-4.6z"/></svg>