<svg width="60" height="60" viewBox="0 0 60 60" xmlns="http://www.w3.org/2000/svg">
  <path d="M51.25 25.2c-.55.7-1.15 1.37-1.8 2 3.66 1.64 4 3.14 4 3.63 0 1.82-3.3 3.6-8.83 4.78-.08.03-.14.12-.14.23 0 .1.04.2.12.23l6.3 2.5h.1c5.16-1.82 8-4.24 8-6.82 0-2.6-2.9-4.87-7.75-6.53zM28.27 33.5c-.07-.02-.14.02-.18.1-.05.1-.04.2 0 .28l2.6 3.5c-12.4-.04-23.37-3.3-23.37-6.53 0-.45.28-1.78 3.08-3.26-.75-.7-1.44-1.44-2.06-2.22C3.74 27 1 29.23 1 31.75c0 3.6 5.37 5.94 8.57 7 5.46 1.82 12.72 2.82 20.43 2.82h2.87l2.75 4.34c.03.06.08.1.13.1s.1-.03.13-.07l5.46-7.65c.04-.06.06-.14.04-.22-.02-.08-.06-.14-.12-.16l-13-4.42zm20.45-17.32v-.03c0-1.17.9-2.13 2.14-2.13 1.22 0 2.1.95 2.1 2.12v.03c0 1.17-.9 2.13-2.13 2.13-1.2 0-2.1-.95-2.1-2.12zm3.26 0v-.03c0-.67-.48-1.25-1.15-1.25-.68 0-1.13.56-1.13 1.24v.03c0 .68.48 1.25 1.16 1.25.68 0 1.12-.56 1.12-1.24zm-16.22 7.27v-.04c0-4.3 2.6-7.75 6.5-7.75s6.47 3.42 6.47 7.7v.04c0 4.27-2.6 7.73-6.5 7.73-3.92 0-6.47-3.42-6.47-7.7zm10.27 0v-.04c0-2.96-1.5-5.38-3.8-5.38s-3.77 2.35-3.77 5.33v.04c0 2.94 1.5 5.36 3.8 5.36 2.33 0 3.77-2.4 3.77-5.33zM25.1 29.55c-1.14-1.13-1.82-2.7-1.82-5.7v-.05c0-4.58 2.17-8.15 6.38-8.15 1.93 0 3.25.62 4.55 1.67l-1.4 2.03c-1.04-.82-1.9-1.3-3.23-1.3-2.6 0-3.53 2.7-3.57 4.76.87-.9 1.98-1.5 3.57-1.5 2.87 0 5.2 1.7 5.2 4.7v.04c0 2.98-2.4 5.1-5.54 5.1-1.83 0-3.14-.58-4.14-1.6zm7.05-3.4v-.04c0-1.5-1.2-2.6-3.04-2.6s-3 1.2-3 2.63v.04c0 1.52 1.22 2.68 3.07 2.68 1.85 0 2.98-1.16 2.98-2.7zM11.3 28.5l1.84-1.7c1.06 1.25 2.25 1.96 3.9 1.96 1.48 0 2.58-.9 2.58-2.27v-.05c0-1.48-1.34-2.3-3.42-2.3H15l-.44-1.66 4.02-4.3h-6.44v-2.3h9.84v1.97l-4.14 4.28c2.25.28 4.37 1.43 4.37 4.2v.04c0 2.74-2.1 4.73-5.2 4.73-2.6 0-4.44-1.1-5.7-2.63z" fill="#656565" fill-rule="evenodd"/>
</svg>