<svg xmlns="http://www.w3.org/2000/svg" viewBox="0 0 15 15" enable-background="new 0 0 15 15"><path fill="#1D6BB4" d="M11.4 9.5c.1 0 .2.1.5.2s.5.3.8.5c.3.2.6.3.9.5.3.2.5.3.6.3.1.1.2.1.4.2s.3.2.4.3v.5c0 .1 0 .3-.1.4 0 .1-.1.3-.1.4 0 .1-.1.2-.1.3-.1.2-.3.5-.6.7-.3.2-.5.4-.9.5-.3.1-.6.3-1 .3-.3.4-.6.4-.8.4-.5 0-1-.1-1.4-.2-.5-.2-.9-.3-1.4-.5-.8-.3-1.5-.7-2.2-1.1-.7-.5-1.3-1-1.9-1.5-.6-.7-1.2-1.3-1.7-1.9-.5-.7-1-1.3-1.4-2-.1-.3-.2-.6-.4-1-.2-.3-.3-.7-.5-1-.1-.4-.3-.7-.4-1.1 0-.3-.1-.7-.1-1 0-.3 0-.7.1-1 .1-.4.2-.7.4-1.1l.6-.9c.3-.3.6-.5 1-.7h1.5c.1 0 .2 0 .3.1 0 0 .1.1.1.2s.1.2.1.2c0 .1.1.2.1.3 0 .1.1.2.1.2 0 .1.1.3.2.6.1.4.2.7.3 1l.3.9c.1.2.1.4.1.5 0 .2-.1.4-.2.6-.1.2-.3.4-.5.6-.2.1-.3.3-.5.4-.2.2-.2.3-.2.5 0 .1 0 .3.2.5 0 .1.1.2.2.3.5.9 1.1 1.7 1.8 2.3.7.6 1.4 1.2 2.4 1.8.1.1.3.2.4.3.2.1.3.2.5.2.1 0 .3-.1.5-.3.2-.2.4-.4.6-.7.2-.2.4-.5.6-.7.1-.2.2-.3.4-.3z"/></svg>