<svg xmlns="http://www.w3.org/2000/svg" width="11.763" height="11.763"><path fill="#676767" d="M9.952 2.234c.1 0 .184.036.256.107s.107.157.107.256v1.039c0 .099-.035.185-.107.256-.072.072-.156.108-.256.108h-8.086c-.105 0-.193-.036-.266-.108-.072-.071-.107-.157-.107-.255v-1.039c0-.099.035-.185.107-.256s.16-.107.266-.107h8.086v-.001zm0 2.796c.1 0 .184.035.256.107s.107.155.107.251v1.044c0 .098-.035.184-.107.254s-.156.105-.256.105h-8.086c-.105 0-.193-.037-.266-.109-.072-.07-.107-.154-.107-.25v-1.043c0-.099.035-.183.107-.253s.161-.106.266-.106h8.086zm0 2.792c.1 0 .184.035.256.107s.107.156.107.256v1.029c0 .105-.035.193-.107.266s-.156.107-.256.107h-8.086c-.105 0-.193-.035-.266-.107s-.107-.16-.107-.266v-1.029c0-.1.035-.184.107-.256s.16-.107.266-.107h8.086z"/></svg>