<svg width="22px" height="22px" viewBox="0 0 22 22" version="1.1" xmlns="http://www.w3.org/2000/svg" xmlns:xlink="http://www.w3.org/1999/xlink">
	<path d="M20.6184185,18.8130612 L14.2974105,12.4920533 C15.2004117,11.1375515 15.8025199,9.63308715 15.8025199,7.97704756 C15.8025199,3.61200455 12.3409618,0 7.97640256,0 C3.61200455,0 0,3.76357975 0,8.12701025 C0,12.4920533 3.46139686,16.1040578 7.82595612,16.1040578 C9.48151196,16.1040578 11.1369065,15.5025945 12.3409618,14.5995934 L18.6619698,20.9206014 C19.2639168,21.5220646 20.1669179,21.5220646 20.6184185,21.0705641 C21.2205268,20.3175256 21.2205268,19.4145245 20.6184185,18.8130612 L20.6184185,18.8130612 Z M2.70900342,8.12701025 C2.70900342,5.26804414 5.1169527,2.86057861 7.97640256,2.86057861 C10.8360137,2.86057861 13.243963,5.26804414 13.243963,8.12701025 C13.243963,10.9875889 10.8360137,13.3950544 7.97640256,13.3950544 C4.96650626,13.3950544 2.70900342,10.9875889 2.70900342,8.12701025 L2.70900342,8.12701025 Z" fill="#b9b9b9"></path>
</svg>