<svg xmlns="http://www.w3.org/2000/svg" viewBox="-259.7 387.1 22 22" enable-background="new -259.7 387.1 22 22"><path fill="#fff" d="M-248 393.6l.8-.6c.1-.1.1-.2.1-.3 0-.1-.1-.2-.3-.2h-3.4c-.4 0-.8.1-1.1.2-1.3.4-2.1 1.5-2.1 2.6 0 1.6 1.2 2.7 2.8 2.8v.4c0 .2.1.5.2.7-1.5 0-2.9.8-3.4 1.9-.1.3-.2.6-.2.9 0 .3.1.6.2.8.3.6 1 1.1 2 1.3.5.1 1 .2 1.6.2.5 0 1-.1 1.4-.2 1.4-.4 2.2-1.4 2.2-2.6 0-1.1-.4-1.8-1.3-2.5-.4-.3-.8-.7-.8-.9 0-.2 0-.4.6-.8.7-.5 1.1-1.3 1.1-2s-.2-1.3-.6-1.7h.3c-.2.1-.2.1-.1 0zm-4.3 1.8c-.1-.6 0-1.1.3-1.4.2-.2.4-.3.7-.3.8 0 1.5.9 1.6 1.9.1.6-.1 1.1-.3 1.4-.2.2-.4.3-.7.3-.8 0-1.5-.9-1.6-1.9zm3.4 6v.3c0 1-.8 1.5-2.2 1.5-1.1 0-2-.7-2-1.6 0-.8 1-1.5 2.2-1.5.3 0 .5 0 .7.1.1.1.2.1.2.2.7.3 1 .6 1.1 1zM-241.9 398.2c0 .1-.1.3-.3.3h-2v2c0 .2-.1.3-.3.3h-.6c-.2 0-.3-.1-.3-.3v-2h-2c-.1 0-.3-.1-.3-.3v-.6c0-.1.1-.3.3-.3h2v-2c0-.2.1-.3.3-.3h.6c.2 0 .3.1.3.3v2h2c.1 0 .3.1.3.3v.6z"/></svg>